<svg class="mb-5" width="80" height="37" viewBox="0 0 80 37" fill="none" xmlns="http://www.w3.org/2000/svg"><path d="M15.6583 26.5673C7.72337 26.5673 0 23.8059 0 16.0214C0 7.76359 9.12521 5.47559 15.6583 5.47559C20.4458 5.47559 24.3339 6.08046 28.2749 7.81619L26.926 12.6289C23.8842 11.3139 20.1284 10.525 16.2667 10.525C10.1303 10.525 7.11502 12.6552 7.11502 16.0477C7.11502 19.4403 10.3419 21.5179 16.2402 21.5442C20.7632 21.5442 23.8578 20.6501 26.926 19.4403L28.3014 24.2267C24.3339 25.7783 20.7103 26.5673 15.6583 26.5673Z" fill="white"></path><path d="M66.0871 26.5672C61.4055 26.5672 57.3058 26.1465 53.5234 24.963L55.0311 20.2292C58.0464 21.2286 61.6435 21.886 66.0871 21.886C71.192 21.886 73.017 21.2549 73.017 20.2029C73.017 19.1509 71.43 18.8617 66.3781 18.4672C57.6761 17.836 53.5499 16.4422 53.5499 11.8925C53.5499 7.34274 59.2102 5.44922 67.5154 5.44922C71.7738 5.44922 76.4026 5.8437 79.3914 7.00085L77.9631 11.7873C75.2123 10.6827 71.5093 10.1567 67.5154 10.1567C62.6751 10.1567 60.7178 10.5512 60.7178 11.4717C60.7178 12.3921 62.0403 12.7603 66.6955 13.1022C75.5826 13.7334 79.9998 14.6538 79.9998 19.4402C79.9998 24.7263 73.9956 26.5672 66.0607 26.5672H66.0871Z" fill="white"></path><path fill-rule="evenodd" clip-rule="evenodd" d="M34.9447 1.54985e-05L42.1897 0L38.6903 13.4822H42.9565L43.9251 10.1747L51.6161 10.1747L43.9251 36.0389L43.187 19.8413H31.7123L31.7123 19.8413H29.7949L34.9447 1.54985e-05Z" fill="#9447FF"></path></svg>
