<?xml version="1.0" standalone="no"?>
<!DOCTYPE svg PUBLIC "-//W3C//DTD SVG 20010904//EN"
 "http://www.w3.org/TR/2001/REC-SVG-20010904/DTD/svg10.dtd">
<svg version="1.0" xmlns="http://www.w3.org/2000/svg"
 width="421.000000pt" height="334.000000pt" viewBox="0 0 421.000000 334.000000"
 preserveAspectRatio="xMidYMid meet">

<g transform="translate(0.000000,334.000000) scale(0.100000,-0.100000)"
fill="#000000" stroke="none">
<path d="M1274 2457 c-3 -8 -4 -47 -2 -88 l3 -74 33 -3 32 -3 0 -284 0 -284
-32 -3 -33 -3 0 -90 0 -90 165 0 165 0 0 90 0 90 -33 3 -32 3 2 282 3 282 33
3 32 3 0 90 0 89 -165 0 c-129 0 -167 -3 -171 -13z"/>
<path d="M1680 2380 c0 -90 0 -90 25 -90 14 0 28 -6 30 -12 3 -7 29 -177 58
-378 l53 -365 90 0 89 0 44 178 c24 98 46 175 49 172 4 -3 25 -84 47 -178 l41
-172 87 -3 c64 -2 89 1 92 10 3 7 29 177 57 378 l53 365 28 3 27 3 0 90 0 89
-145 0 -145 0 0 -90 c0 -89 0 -90 25 -90 17 0 25 -6 25 -17 0 -43 -34 -323
-39 -323 -3 0 -24 64 -46 143 l-40 142 -67 3 -67 3 -10 -38 c-6 -21 -22 -87
-37 -146 -15 -59 -29 -106 -31 -103 -5 4 -32 265 -33 309 0 20 5 27 20 27 19
0 20 7 20 90 l0 90 -150 0 -150 0 0 -90z"/>
<path d="M2652 2429 l-42 -41 0 -381 0 -380 49 -48 48 -49 198 0 198 0 49 49
49 49 -3 123 -3 124 -99 0 -99 0 -1 -75 -1 -75 -93 -3 -92 -3 2 283 3 283 90
0 90 0 3 -48 3 -48 97 3 97 3 3 92 3 93 -42 45 -42 45 -211 0 -211 0 -43 -41z"/>
<path d="M2199 1324 c-8 -9 -21 -35 -29 -57 -12 -31 -23 -43 -50 -52 -45 -15
-50 -50 -6 -50 l28 0 0 -125 c-1 -117 -2 -125 -24 -142 -45 -35 -53 -22 -56
87 -4 142 -29 160 -105 75 -25 -27 -47 -50 -50 -50 -3 0 1 20 9 44 9 25 14 55
12 68 -4 28 -39 36 -58 13 -14 -17 -50 -172 -50 -217 0 -18 -10 -33 -30 -48
-36 -25 -47 -20 -56 25 -5 29 -2 53 23 153 5 20 2 23 -18 20 -18 -2 -33 -21
-62 -73 -38 -69 -73 -115 -89 -115 -15 0 -8 60 11 98 20 39 67 87 113 115 55
34 0 64 -60 33 -91 -48 -160 -206 -118 -271 25 -38 62 -33 106 14 l37 38 14
-41 c17 -48 56 -69 90 -47 18 10 23 10 33 -5 21 -27 39 -12 81 70 40 78 89
146 106 146 5 0 9 -35 9 -78 0 -50 5 -85 14 -97 18 -25 66 -23 103 3 l31 22
12 -31 c26 -61 86 -66 149 -13 l42 36 22 -20 c35 -32 63 -42 113 -42 44 0 114
30 114 50 0 22 -26 28 -50 10 -69 -54 -198 9 -154 74 17 27 12 46 -12 46 -17
0 -17 2 0 45 26 61 109 84 160 44 26 -20 29 -21 44 -5 16 16 15 18 -8 36 -48
38 -140 39 -189 2 -51 -38 -66 -69 -67 -139 -1 -61 -3 -69 -33 -95 -57 -51
-74 -35 -92 84 -8 49 -9 97 -3 143 l9 70 60 13 c80 18 107 30 102 45 -4 13
-26 14 -106 4 -51 -6 -53 -6 -47 16 18 59 19 87 4 87 -9 0 -22 -7 -29 -16z"/>
<path d="M2672 1073 c3 -222 5 -258 18 -258 13 0 15 36 18 258 2 253 2 257
-18 257 -20 0 -20 -4 -18 -257z"/>
<path d="M957 1245 c-18 -18 -13 -40 11 -50 23 -9 49 21 36 42 -15 24 -29 26
-47 8z"/>
<path d="M2793 1253 c-18 -7 -16 -38 2 -53 18 -15 45 2 45 30 0 14 -23 34 -33
29 -1 0 -8 -3 -14 -6z"/>
<path d="M1402 1203 c-7 -12 -4 -28 11 -57 16 -31 22 -64 25 -136 4 -98 -7
-150 -32 -150 -18 0 -33 38 -51 135 -21 111 -50 125 -90 45 -25 -51 -104 -160
-116 -160 -15 0 -10 71 11 148 27 96 26 104 -7 100 -36 -4 -57 -43 -78 -143
-16 -79 -14 -137 7 -162 30 -36 101 8 160 98 17 27 33 47 35 46 2 -2 10 -30
19 -63 19 -73 46 -104 90 -104 86 0 126 148 89 324 -8 37 -20 75 -26 82 -15
19 -36 18 -47 -3z"/>
<path d="M2996 1115 c-44 -30 -46 -30 -46 -5 0 13 -7 20 -20 20 -19 0 -20 -7
-20 -255 0 -248 1 -255 20 -255 19 0 20 7 20 121 l0 120 33 -23 c46 -33 148
-33 195 0 93 67 86 223 -14 279 -54 31 -120 31 -168 -2z m160 -46 c55 -52 52
-144 -7 -194 -104 -86 -253 53 -177 165 13 19 35 41 48 48 36 19 106 9 136
-19z"/>
<path d="M3350 1133 c-36 -13 -60 -47 -60 -84 0 -48 25 -73 88 -89 59 -14 92
-35 92 -59 0 -48 -85 -68 -133 -31 -26 21 -57 18 -57 -5 0 -7 15 -23 34 -34
60 -38 169 -22 196 28 31 59 -6 113 -94 139 -35 11 -65 26 -73 39 -13 19 -12
24 6 42 26 26 71 27 103 1 20 -16 28 -17 41 -7 46 34 -75 85 -143 60z"/>
<path d="M960 1123 c-3 -68 0 -307 4 -310 3 -3 12 -3 21 0 13 5 15 31 15 162
0 148 -1 155 -20 155 -11 0 -20 -3 -20 -7z"/>
<path d="M2792 973 c3 -133 5 -158 18 -158 13 0 15 25 18 158 2 153 2 157 -18
157 -20 0 -20 -4 -18 -157z"/>
</g>
</svg>
